<svg width="48" height="48" viewBox="13.5 0 47 47" fill="none" xmlns="http://www.w3.org/2000/svg">
<rect x="13.5" width="47" height="47" rx="23.5" fill="url(#paint0_linear_4356_4975)"/>
<path d="M41.6065 15.6921C41.6062 14.4535 41.1151 13.2655 40.2409 12.3881C39.3666 11.5107 38.1804 11.0155 36.9418 11.0107C35.7042 11.0107 34.517 11.5007 33.6397 12.3737C32.7624 13.2466 32.2665 14.4315 32.2605 15.669C32.2591 16.9076 32.7485 18.0963 33.6215 18.9749C34.4946 19.8534 35.6802 20.3503 36.9187 20.3567C38.1583 20.3578 39.3478 19.8674 40.2265 18.993C41.1051 18.1187 41.6014 16.9317 41.6065 15.6921Z" fill="white"/>
<path d="M37.4654 22.9018L36.3584 22.899C34.2819 22.8958 32.2889 23.7166 30.8169 25.1813C29.3449 26.646 28.5143 28.635 28.5073 30.7115L28.5025 32.6426C28.4996 33.8144 29.4471 34.7666 30.6189 34.7695L43.1464 34.8004C44.3181 34.8033 45.2703 33.8557 45.2732 32.684L45.278 30.7529C45.2812 28.6763 44.4604 26.6833 42.9957 25.2113C41.531 23.7394 39.542 22.9087 37.4654 22.9018Z" fill="white"/>
<defs>
<linearGradient id="paint0_linear_4356_4975" x1="60.5" y1="39.2688" x2="13.5" y2="7.73122" gradientUnits="userSpaceOnUse">
<stop stop-color="#8686FF"/>
<stop offset="1" stop-color="#96C0FF"/>
</linearGradient>
</defs>
</svg>
